<svg width="100%" height="100%" viewBox="0 0 490 490" version="1.1" xmlns="http://www.w3.org/2000/svg" xmlns:xlink="http://www.w3.org/1999/xlink" xml:space="preserve" xmlns:serif="http://www.serif.com/" style="fill-rule:evenodd;clip-rule:evenodd;">
    <g>
        <g transform="matrix(1,0,0,1,-3,0)">
            <g transform="matrix(0.6014,0,0,0.679049,98,21.7061)">
                <path d="M498.836,392.265C498.836,527.575 380.31,637.265 245,637.265C109.69,637.265 0,527.575 0,392.265C0,389.252 0.054,386.252 0.162,383.265L5,383.265L10,386.265L10,227L1.151,221.101C13.164,97.006 117.754,0 245,0C372.089,0 485.414,96.767 497.64,220.641L488.836,227L488.836,386.765L493.836,382.765L498.655,382.765C498.775,385.917 498.836,389.084 498.836,392.265Z" style="fill:white;fill-rule:nonzero;"/>
            </g>
            <g transform="matrix(0.6014,0,0,0.679049,97.1176,21.7061)">
                <path d="M423.53,119C417.223,110.652 410.26,102.742 402.679,95.351C363.591,57.243 299.364,35.941 244.774,36C190.184,36.059 137.784,57.475 98.779,95.667C59.774,133.86 37.26,185.797 36.051,240.374L38.141,240.42C39.059,198.96 52.396,159.038 76,125.622L76,126L232.664,126L232.664,124L77.158,124C77.883,122.994 78.618,121.994 79.362,121L232.664,121L232.664,119L80.878,119C86.777,111.317 93.241,104.015 100.241,97.161C138.856,59.35 190.732,38.149 244.776,38.09C298.82,38.032 362.523,59.121 401.22,96.847C408.343,103.792 414.914,111.199 420.903,119L259.938,119L259.938,121L422.419,121C423.163,121.994 423.898,122.994 424.623,124L259.938,124L259.938,126L426.047,126C449.397,159.213 462.63,198.821 463.63,239.972L465.719,239.921C464.653,196.073 449.837,153.959 423.781,119.332L423.781,119L423.53,119Z" style="fill:rgb(170,170,170);fill-rule:nonzero;"/>
            </g>
            <g transform="matrix(-0.679049,8.31595e-17,-8.31595e-17,-0.679049,414.367,438.305)">
                <path d="M350,122.5C350,152.6 275.376,157 245,157C214.624,157 140,152.6 140,122.5C140,92.4 214.624,88 245,88C275.376,88 350,92.4 350,122.5ZM346,122.5C346,150.356 273.201,153 245,153C216.799,153 144,150.356 144,122.5C144,94.644 216.799,92 245,92C273.201,92 346,94.644 346,122.5Z" style="fill:rgb(102,102,102);"/>
            </g>
            <g transform="matrix(1,-2.44929e-16,2.44929e-16,1,-15.868,253.49)">
                <g transform="matrix(30,0,0,30,225.592,111.785)">
                    <path d="M0.432,-0.187C0.432,-0.214 0.422,-0.235 0.403,-0.25C0.383,-0.265 0.348,-0.281 0.297,-0.297C0.247,-0.314 0.206,-0.33 0.177,-0.346C0.096,-0.389 0.056,-0.448 0.056,-0.522C0.056,-0.56 0.066,-0.595 0.088,-0.625C0.11,-0.655 0.141,-0.678 0.181,-0.695C0.222,-0.712 0.267,-0.721 0.318,-0.721C0.369,-0.721 0.414,-0.712 0.454,-0.693C0.493,-0.675 0.524,-0.649 0.546,-0.615C0.568,-0.582 0.579,-0.544 0.579,-0.501L0.433,-0.501C0.433,-0.534 0.422,-0.559 0.402,-0.577C0.381,-0.595 0.353,-0.604 0.315,-0.604C0.28,-0.604 0.252,-0.596 0.232,-0.581C0.212,-0.566 0.202,-0.546 0.202,-0.521C0.202,-0.498 0.214,-0.479 0.237,-0.463C0.26,-0.448 0.295,-0.433 0.34,-0.419C0.423,-0.394 0.484,-0.363 0.522,-0.326C0.56,-0.289 0.579,-0.243 0.579,-0.188C0.579,-0.126 0.556,-0.078 0.509,-0.043C0.463,-0.008 0.4,0.01 0.321,0.01C0.267,0.01 0.217,-0 0.172,-0.02C0.127,-0.04 0.093,-0.068 0.069,-0.103C0.045,-0.137 0.034,-0.178 0.034,-0.224L0.181,-0.224C0.181,-0.145 0.228,-0.106 0.321,-0.106C0.356,-0.106 0.383,-0.113 0.403,-0.127C0.422,-0.141 0.432,-0.161 0.432,-0.187Z" style="fill:rgb(255,0,0);fill-rule:nonzero;"/>
                </g>
                <g transform="matrix(30,0,0,30,244.034,111.785)">
                    <path d="M0.599,-0.592L0.381,-0.592L0.381,-0L0.234,-0L0.234,-0.592L0.02,-0.592L0.02,-0.711L0.599,-0.711L0.599,-0.592Z" style="fill:rgb(255,0,0);fill-rule:nonzero;"/>
                </g>
                <g transform="matrix(30,0,0,30,262.183,111.785)">
                    <path d="M0.647,-0.339C0.647,-0.269 0.635,-0.208 0.61,-0.155C0.586,-0.103 0.55,-0.062 0.504,-0.033C0.458,-0.005 0.405,0.01 0.346,0.01C0.287,0.01 0.234,-0.004 0.188,-0.033C0.142,-0.061 0.106,-0.101 0.081,-0.154C0.055,-0.207 0.042,-0.267 0.042,-0.335L0.042,-0.371C0.042,-0.441 0.055,-0.502 0.08,-0.555C0.105,-0.609 0.141,-0.649 0.187,-0.678C0.233,-0.706 0.285,-0.721 0.345,-0.721C0.404,-0.721 0.457,-0.706 0.503,-0.678C0.549,-0.649 0.584,-0.609 0.61,-0.555C0.635,-0.502 0.647,-0.441 0.647,-0.371L0.647,-0.339ZM0.499,-0.372C0.499,-0.446 0.486,-0.503 0.459,-0.542C0.432,-0.58 0.394,-0.6 0.345,-0.6C0.296,-0.6 0.258,-0.58 0.231,-0.542C0.204,-0.504 0.191,-0.448 0.19,-0.374L0.19,-0.339C0.19,-0.267 0.204,-0.21 0.23,-0.17C0.257,-0.13 0.296,-0.11 0.346,-0.11C0.395,-0.11 0.433,-0.13 0.459,-0.168C0.485,-0.207 0.499,-0.263 0.499,-0.337L0.499,-0.372Z" style="fill:rgb(255,0,0);fill-rule:nonzero;"/>
                </g>
                <g transform="matrix(30,0,0,30,282.896,111.785)">
                    <path d="M0.21,-0.25L0.21,-0L0.063,-0L0.063,-0.711L0.341,-0.711C0.394,-0.711 0.441,-0.701 0.482,-0.682C0.522,-0.662 0.553,-0.634 0.575,-0.598C0.597,-0.562 0.608,-0.521 0.608,-0.476C0.608,-0.406 0.584,-0.351 0.536,-0.311C0.489,-0.271 0.423,-0.25 0.338,-0.25L0.21,-0.25ZM0.21,-0.369L0.341,-0.369C0.38,-0.369 0.409,-0.378 0.429,-0.396C0.45,-0.415 0.46,-0.441 0.46,-0.475C0.46,-0.509 0.45,-0.538 0.429,-0.559C0.409,-0.581 0.38,-0.592 0.344,-0.592L0.21,-0.592L0.21,-0.369Z" style="fill:rgb(255,0,0);fill-rule:nonzero;"/>
                </g>
            </g>
            <g transform="matrix(0.6014,0,0,0.679049,98,21.7061)">
                <path d="M1.127,221.523C6.957,160.97 35.106,104.75 80.096,63.804C125.087,22.859 183.702,0.116 244.536,0C305.369,-0.115 372.906,22.406 418.052,63.181C463.037,103.811 491.357,156.724 497.552,217.008L497.563,217.009C497.561,217.022 497.559,217.034 497.556,217.047C497.577,217.249 497.598,217.452 497.618,217.654L497.339,217.682C497.194,217.968 497.027,218.165 496.957,218.247L496.954,218.252C496.769,218.47 496.552,218.678 496.343,218.864C495.918,219.241 495.349,219.681 494.692,220.158C493.367,221.121 491.521,222.352 489.351,223.746C489.181,223.855 489.01,223.965 488.836,224.076L488.836,386.501L489.085,386.327C490.625,385.254 491.908,384.346 492.821,383.683C493.211,383.4 493.524,383.168 493.757,382.99L493.75,382.807L494.004,382.797C494.052,382.759 494.087,382.73 494.11,382.71L494.118,382.703L494.108,382.713C494.098,382.722 494.075,382.745 494.045,382.779L494.03,382.796L498.646,382.614C499.944,415.552 494.583,448.413 482.882,479.23C471.182,510.046 453.383,538.185 430.551,561.961C407.719,585.737 380.325,604.661 350.007,617.601C319.69,630.54 278.237,637.228 245.273,637.265C212.31,637.302 179.679,630.686 149.332,617.815C118.986,604.943 91.549,586.08 68.664,562.355C45.78,538.63 27.918,510.531 16.149,479.741C4.379,448.95 -1.056,416.101 0.169,383.161L4,383.303L4,383.265C4.186,383.265 4.359,383.29 4.505,383.322L5.066,383.343L5.06,383.501C5.191,383.554 5.321,383.613 5.446,383.672C5.799,383.839 6.231,384.069 6.712,384.339C7.586,384.828 8.712,385.497 10,386.288L10,226.893L9.519,226.591C7.341,225.224 5.498,224.055 4.166,223.193C3.502,222.762 2.954,222.401 2.553,222.127C2.354,221.991 2.178,221.866 2.035,221.761L2.023,221.752C1.982,221.722 1.905,221.665 1.815,221.589L1.127,221.523ZM473.48,233.53C477.044,231.383 480.607,229.218 483.836,227.217L483.836,389.955C481.927,391.265 479.891,392.654 477.849,394.041C473.756,396.82 469.643,399.587 466.473,401.689C464.887,402.741 463.543,403.622 462.558,404.255C462.084,404.559 461.701,404.801 461.418,404.974L461.228,404.963L461.221,405.094C461.158,405.131 461.114,405.156 461.086,405.173C461.056,405.19 461.044,405.198 461.044,405.198L461.068,405.189C461.078,405.185 461.091,405.179 461.107,405.173L461.202,405.414C457.985,458.274 434.749,507.93 396.213,544.272C357.567,580.716 297.618,601.015 244.499,601.015C191.379,601.015 140.267,580.715 101.621,544.27C62.976,507.825 39.718,457.989 36.607,404.96L36.397,404.973C36.342,404.803 36.277,404.673 36.235,404.595C36.149,404.435 36.056,404.305 35.986,404.215C35.846,404.034 35.687,403.869 35.548,403.733C35.262,403.454 34.887,403.135 34.468,402.797C33.619,402.113 32.439,401.234 31.055,400.241C28.279,398.25 24.589,395.734 20.868,393.267C18.881,391.95 16.881,390.645 15,389.437L15,230.015C18.217,232.016 21.754,234.205 25.278,236.38C30.964,239.889 36.621,243.365 40.856,245.963C42.973,247.262 44.736,248.342 45.969,249.097L47.046,249.757C47.62,276.411 38.848,342.616 49.569,404.912C59.369,461.855 87.878,515.531 105.176,532.747C142.078,569.476 191.992,590.148 244.057,590.265C296.123,590.381 354.965,569.934 392.032,533.37C409.751,515.891 438.555,460.712 448.488,402.693C459.02,341.176 450.166,273.519 450.782,247.168C451.134,246.944 451.599,246.655 452.167,246.307C453.492,245.494 455.339,244.384 457.538,243.069C458.825,242.299 460.231,241.46 461.721,240.571L461.818,240.513C465.392,238.38 469.442,235.963 473.48,233.53ZM6.23,219.764L6.341,219.836C7.648,220.683 9.473,221.84 11.645,223.204C15.988,225.931 21.696,229.469 27.379,232.976C33.061,236.483 38.715,239.956 42.948,242.554C45.064,243.852 46.826,244.931 48.058,245.686L49.963,246.852L50.955,246.845C51.142,273.829 42.234,341.385 53.025,404.376C62.638,460.494 90.923,512.988 107.962,529.947C144.127,565.942 193.042,586.2 244.066,586.314C295.091,586.429 352.932,566.39 389.258,530.558C406.64,513.412 435.172,459.593 444.908,402.533C455.519,340.351 446.569,271.374 446.873,244.768L447.458,244.774L447.387,244.708C447.577,244.504 447.821,244.334 447.909,244.273L447.921,244.265C448.065,244.164 448.244,244.045 448.445,243.915C448.851,243.653 449.405,243.308 450.076,242.897C451.422,242.071 453.286,240.951 455.485,239.636C456.806,238.846 458.249,237.985 459.777,237.073C463.348,234.942 467.385,232.533 471.416,230.104C477.173,226.635 482.892,223.141 487.189,220.381C489.341,218.997 491.11,217.816 492.341,216.922C492.394,216.884 492.445,216.846 492.495,216.809L492.597,216.734C486.364,157.952 458.66,106.46 414.768,66.817C370.525,26.858 304.162,4.787 244.545,4.9C184.928,5.013 127.486,27.302 83.394,67.428C39.856,107.052 12.412,161.271 6.23,219.764ZM8.329,389.957C6.973,389.12 5.816,388.427 4.939,387.931C4.384,418.671 9.738,449.246 20.726,477.991C32.26,508.166 49.764,535.703 72.191,558.954C94.618,582.204 121.506,600.69 151.246,613.304C180.985,625.918 212.964,632.401 245.268,632.365C277.572,632.329 318.373,625.774 348.084,613.094C377.795,600.413 404.642,581.868 427.017,558.567C449.392,535.267 466.835,507.691 478.301,477.49C489.172,448.858 494.46,418.426 493.895,387.835C493.161,388.357 492.311,388.954 491.373,389.608C488.278,391.767 484.197,394.566 480.096,397.35C475.995,400.135 471.869,402.91 468.684,405.023C467.4,405.874 466.265,406.62 465.344,407.217C461.707,460.578 438.076,510.635 399.128,547.364C359.694,584.552 298.702,605.265 244.498,605.265C190.294,605.265 138.139,584.551 98.705,547.362C59.537,510.424 35.86,460.006 32.432,406.305C32.302,406.193 32.144,406.062 31.958,405.911C31.196,405.298 30.088,404.47 28.723,403.492C26.003,401.54 22.357,399.053 18.658,396.601C14.959,394.149 11.225,391.744 8.329,389.957Z" style="fill:rgb(102,102,102);"/>
            </g>
            <g transform="matrix(-0.679049,8.31595e-17,-4.3455e-17,-0.354837,411.367,243.784)">
                <path d="M257,387.964C257,375.29 251.623,365 245,365C238.377,365 233,375.29 233,387.964L233,395.036C233,407.71 238.377,418 245,418C251.623,418 257,407.71 257,395.036L257,387.964Z" style="fill:none;stroke:rgb(170,170,170);stroke-width:2px;"/>
            </g>
        </g>
        <g id="mowerblades" transform="matrix(0.890433,0,0,0.890433,132.38,119.807)">
            <g opacity="0.15">
                <g transform="matrix(-0.5,0.866025,-0.866025,-0.5,444.552,35.8763)">
                    <g transform="matrix(3.31246,0,0,3.26189,-569.166,-509.034)">
                        <ellipse cx="246.308" cy="226.289" rx="28.68" ry="29.124" style="fill:rgb(170,170,170);stroke:rgb(102,102,102);stroke-width:0.34px;stroke-linecap:round;stroke-linejoin:round;stroke-miterlimit:1.5;"/>
                    </g>
                    <g transform="matrix(2.30129,0,0,2.26615,-320.107,-283.711)">
                        <ellipse cx="246.308" cy="226.289" rx="28.68" ry="29.124" style="fill:rgb(170,170,170);stroke:rgb(102,102,102);stroke-width:0.49px;stroke-linecap:round;stroke-linejoin:round;stroke-miterlimit:1.5;"/>
                    </g>
                    <g transform="matrix(0.871701,0,0,0.858391,32.012,34.8504)">
                        <ellipse cx="246.308" cy="226.289" rx="28.68" ry="29.124" style="fill:rgb(170,170,170);stroke:rgb(102,102,102);stroke-width:1.3px;stroke-linecap:round;stroke-linejoin:round;stroke-miterlimit:1.5;"/>
                    </g>
                </g>
                <g transform="matrix(-0.5,0.866025,-0.866025,-0.5,455.432,18.5792)">
                    <path d="M254.985,110.056L254.985,146.999L259.597,157.222L274.494,157.222L279.292,147.285L279.292,110.18L254.985,110.056Z" style="fill:white;stroke:rgb(102,102,102);stroke-width:1.12px;stroke-linecap:round;stroke-linejoin:round;stroke-miterlimit:1.5;"/>
                    <g transform="matrix(1,0,0,0.974792,-1,2.78472)">
                        <path d="M258.435,110.469L258.435,153.241" style="fill:none;stroke:rgb(102,102,102);stroke-width:1.14px;stroke-linecap:round;stroke-linejoin:round;stroke-miterlimit:1.5;"/>
                    </g>
                    <g transform="matrix(1,0,0,0.998277,-0.212705,0.189875)">
                        <path d="M277.313,110.21L277.313,151.862" style="fill:none;stroke:rgb(102,102,102);stroke-width:1.12px;stroke-linecap:round;stroke-linejoin:round;stroke-miterlimit:1.5;"/>
                    </g>
                    <g transform="matrix(0.994484,0,0,0.940226,0.994767,9.13583)">
                        <ellipse cx="267.497" cy="146.382" rx="5.531" ry="5.85" style="fill:white;stroke:rgb(102,102,102);stroke-width:1.16px;stroke-linecap:round;stroke-linejoin:round;stroke-miterlimit:1.5;"/>
                    </g>
                </g>
                <g transform="matrix(1,-1.66533e-16,1.66533e-16,1,-144.348,-95.5305)">
                    <path d="M254.985,110.056L254.985,146.999L259.597,157.222L274.494,157.222L279.292,147.285L279.292,110.18L254.985,110.056Z" style="fill:white;stroke:rgb(102,102,102);stroke-width:1.12px;stroke-linecap:round;stroke-linejoin:round;stroke-miterlimit:1.5;"/>
                    <g transform="matrix(1,0,0,0.974792,-1,2.78472)">
                        <path d="M258.435,110.469L258.435,153.241" style="fill:none;stroke:rgb(102,102,102);stroke-width:1.14px;stroke-linecap:round;stroke-linejoin:round;stroke-miterlimit:1.5;"/>
                    </g>
                    <g transform="matrix(1,0,0,0.998277,-0.212705,0.189875)">
                        <path d="M277.313,110.21L277.313,151.862" style="fill:none;stroke:rgb(102,102,102);stroke-width:1.12px;stroke-linecap:round;stroke-linejoin:round;stroke-miterlimit:1.5;"/>
                    </g>
                    <g transform="matrix(0.994484,0,0,0.940226,0.994767,9.13583)">
                        <ellipse cx="267.497" cy="146.382" rx="5.531" ry="5.85" style="fill:white;stroke:rgb(102,102,102);stroke-width:1.16px;stroke-linecap:round;stroke-linejoin:round;stroke-miterlimit:1.5;"/>
                    </g>
                </g>
                <g transform="matrix(-0.5,-0.866025,0.866025,-0.5,57.8155,480.972)">
                    <path d="M254.985,110.056L254.985,146.999L259.597,157.222L274.494,157.222L279.292,147.285L279.292,110.18L254.985,110.056Z" style="fill:white;stroke:rgb(102,102,102);stroke-width:1.12px;stroke-linecap:round;stroke-linejoin:round;stroke-miterlimit:1.5;"/>
                    <g transform="matrix(1,0,5.55112e-17,0.974792,-1,2.78472)">
                        <path d="M258.435,110.469L258.435,153.241" style="fill:none;stroke:rgb(102,102,102);stroke-width:1.14px;stroke-linecap:round;stroke-linejoin:round;stroke-miterlimit:1.5;"/>
                    </g>
                    <g transform="matrix(1,0,0,0.998277,-0.212705,0.189875)">
                        <path d="M277.313,110.21L277.313,151.862" style="fill:none;stroke:rgb(102,102,102);stroke-width:1.12px;stroke-linecap:round;stroke-linejoin:round;stroke-miterlimit:1.5;"/>
                    </g>
                    <g transform="matrix(0.994484,0,0,0.940226,0.994767,9.13583)">
                        <ellipse cx="267.497" cy="146.382" rx="5.531" ry="5.85" style="fill:white;stroke:rgb(102,102,102);stroke-width:1.16px;stroke-linecap:round;stroke-linejoin:round;stroke-miterlimit:1.5;"/>
                    </g>
                </g>
            </g>
        </g>
    </g>
</svg>
